<?xml version="1.0" encoding="UTF-8"?>
<!DOCTYPE svg PUBLIC "-//W3C//DTD SVG 1.1//EN" "http://www.w3.org/Graphics/SVG/1.1/DTD/svg11.dtd">
<svg xmlns="http://www.w3.org/2000/svg" version="1.1" width="500px" height="500px" style="shape-rendering:geometricPrecision; text-rendering:geometricPrecision; image-rendering:optimizeQuality; fill-rule:evenodd; clip-rule:evenodd" xmlns:xlink="http://www.w3.org/1999/xlink">
<g><path style="opacity:1" fill="#fefefe" d="M 229.5,-0.5 C 242.833,-0.5 256.167,-0.5 269.5,-0.5C 364.68,10.881 433.847,59.2143 477,144.5C 489.062,171.756 496.562,200.089 499.5,229.5C 499.5,242.833 499.5,256.167 499.5,269.5C 487.652,367.827 436.986,437.994 347.5,480C 322.377,490.552 296.377,497.052 269.5,499.5C 256.167,499.5 242.833,499.5 229.5,499.5C 134.3,488.093 65.1332,439.759 22,354.5C 9.93784,327.244 2.43784,298.911 -0.5,269.5C -0.5,256.167 -0.5,242.833 -0.5,229.5C 10.4854,135.053 58.1521,66.2198 142.5,23C 170.312,10.2992 199.312,2.4659 229.5,-0.5 Z M 245.5,29.5 C 332.259,31.6066 397.759,69.6066 442,143.5C 475.026,207.606 477.693,272.939 450,339.5C 417.113,408.207 363.28,450.207 288.5,465.5C 204.569,477.595 134.735,451.929 79,388.5C 66.522,372.547 56.3554,355.214 48.5,336.5C 67.5103,343.952 86.5103,351.619 105.5,359.5C 119.794,401.319 148.794,418.486 192.5,411C 224.553,399.261 241.553,376.261 243.5,342C 271.5,322 299.5,302 327.5,282C 375.469,280.021 406.635,256.187 421,210.5C 429.327,164.668 413.827,129.501 374.5,105C 338.352,87.4984 304.019,90.4984 271.5,114C 247.869,134.692 235.369,160.859 234,192.5C 214.833,220.167 195.667,247.833 176.5,275.5C 161.727,275.87 148.061,279.87 135.5,287.5C 100.927,272.759 66.2604,258.425 31.5,244.5C 33.2964,173.406 62.2964,116.239 118.5,73C 156.45,45.6279 198.784,31.1279 245.5,29.5 Z M 323.5,125.5 C 359.542,125.421 382.042,142.754 391,177.5C 394.012,215.471 377.178,239.304 340.5,249C 309.435,252.388 286.935,240.222 273,212.5C 264.632,190.155 267.298,169.155 281,149.5C 292.377,136.399 306.544,128.399 323.5,125.5 Z M 166.5,292.5 C 193.55,291.1 212.383,302.766 223,327.5C 230.147,356.764 220.647,378.597 194.5,393C 171.352,401.582 151.185,397.082 134,379.5C 131.584,376.337 129.418,373.004 127.5,369.5C 138.012,373.079 148.679,377.245 159.5,382C 181.813,386.592 197.979,378.759 208,358.5C 213.59,339.682 208.757,324.182 193.5,312C 181.283,306.391 168.95,301.058 156.5,296C 159.803,294.517 163.136,293.35 166.5,292.5 Z"/></g>
<g><path style="opacity:1" fill="#fefffe" d="M 323.5,140.5 C 347.03,139.344 363.863,149.344 374,170.5C 381.86,196.265 374.36,216.098 351.5,230C 329.741,238.981 310.574,235.148 294,218.5C 279.196,198.735 278.862,178.735 293,158.5C 301.196,148.992 311.362,142.992 323.5,140.5 Z"/></g>
</svg>
