<?xml version="1.0" encoding="UTF-8"?>
<!DOCTYPE svg PUBLIC "-//W3C//DTD SVG 1.1//EN" "http://www.w3.org/Graphics/SVG/1.1/DTD/svg11.dtd">
<svg xmlns="http://www.w3.org/2000/svg" version="1.1" width="500px" height="500px" style="shape-rendering:geometricPrecision; text-rendering:geometricPrecision; image-rendering:optimizeQuality; fill-rule:evenodd; clip-rule:evenodd" xmlns:xlink="http://www.w3.org/1999/xlink">
<g><path style="opacity:1" fill="#fefefe" d="M 229.5,-0.5 C 242.833,-0.5 256.167,-0.5 269.5,-0.5C 364.68,10.881 433.847,59.2143 477,144.5C 489.062,171.756 496.562,200.089 499.5,229.5C 499.5,242.833 499.5,256.167 499.5,269.5C 487.652,367.827 436.986,437.994 347.5,480C 322.377,490.552 296.377,497.052 269.5,499.5C 256.167,499.5 242.833,499.5 229.5,499.5C 134.3,488.093 65.1332,439.759 22,354.5C 9.93784,327.244 2.43784,298.911 -0.5,269.5C -0.5,256.167 -0.5,242.833 -0.5,229.5C 10.4854,135.053 58.1521,66.2198 142.5,23C 170.312,10.2992 199.312,2.4659 229.5,-0.5 Z M 245.5,29.5 C 295.312,29.4943 340.312,43.9943 380.5,73C 293.167,73.6667 205.833,73.6667 118.5,73C 156.45,45.6279 198.784,31.1279 245.5,29.5 Z M 417.5,108.5 C 456.505,155.697 473.338,210.03 468,271.5C 461.234,330.376 435.567,379.042 391,417.5C 399.566,314.502 408.399,211.502 417.5,108.5 Z M 79.5,109.5 C 80.8711,114.272 81.7044,119.272 82,124.5C 90.8084,221.823 99.1417,319.156 107,416.5C 50.5724,366.258 25.2391,303.258 31,227.5C 35.9303,183.337 52.0969,144.004 79.5,109.5 Z M 142.5,145.5 C 213.834,145.333 285.167,145.5 356.5,146C 355.081,159.777 353.747,173.611 352.5,187.5C 297.833,187.5 243.167,187.5 188.5,187.5C 189.477,202.208 190.811,216.875 192.5,231.5C 244.5,231.5 296.5,231.5 348.5,231.5C 344.619,270.455 341.119,309.455 338,348.5C 337.712,353.601 336.878,358.601 335.5,363.5C 306.742,371.687 277.908,379.687 249,387.5C 219.466,379.575 189.966,371.575 160.5,363.5C 159.495,341.106 157.829,318.773 155.5,296.5C 169.5,296.5 183.5,296.5 197.5,296.5C 198.302,308.113 199.635,319.613 201.5,331C 216.171,335.002 230.838,339.002 245.5,343C 247.833,343.667 250.167,343.667 252.5,343C 267.339,338.749 282.173,334.583 297,330.5C 298.999,311.841 300.833,293.174 302.5,274.5C 252.833,274.5 203.167,274.5 153.5,274.5C 149.503,231.529 145.836,188.529 142.5,145.5 Z M 121.5,428.5 C 121.735,427.903 122.235,427.57 123,427.5C 164.856,439.631 206.856,451.298 249,462.5C 290.574,451.397 332.074,439.897 373.5,428C 374.833,427.333 376.167,427.333 377.5,428C 308.025,474.419 234.692,481.419 157.5,449C 144.957,442.902 132.957,436.069 121.5,428.5 Z"/></g>
</svg>
