<?xml version="1.0" encoding="UTF-8"?>
<!DOCTYPE svg PUBLIC "-//W3C//DTD SVG 1.1//EN" "http://www.w3.org/Graphics/SVG/1.1/DTD/svg11.dtd">
<svg xmlns="http://www.w3.org/2000/svg" version="1.1" width="500px" height="500px" style="shape-rendering:geometricPrecision; text-rendering:geometricPrecision; image-rendering:optimizeQuality; fill-rule:evenodd; clip-rule:evenodd" xmlns:xlink="http://www.w3.org/1999/xlink">
<g><path style="opacity:1" fill="#fefffe" d="M 229.5,-0.5 C 242.833,-0.5 256.167,-0.5 269.5,-0.5C 364.68,10.881 433.847,59.2143 477,144.5C 489.062,171.756 496.562,200.089 499.5,229.5C 499.5,242.833 499.5,256.167 499.5,269.5C 487.652,367.827 436.986,437.994 347.5,480C 322.377,490.552 296.377,497.052 269.5,499.5C 256.167,499.5 242.833,499.5 229.5,499.5C 134.3,488.093 65.1332,439.759 22,354.5C 9.93784,327.244 2.43784,298.911 -0.5,269.5C -0.5,256.167 -0.5,242.833 -0.5,229.5C 10.4854,135.053 58.1521,66.2198 142.5,23C 170.312,10.2992 199.312,2.4659 229.5,-0.5 Z M 245.5,29.5 C 300.888,29.4005 349.555,47.0671 391.5,82.5C 288.833,185.833 185.833,288.833 82.5,391.5C 40.7097,341.375 23.8764,283.709 32,218.5C 45.3023,140.892 87.1356,84.7254 157.5,50C 185.611,37.3486 214.944,30.5152 245.5,29.5 Z M 416.5,107.5 C 450.868,148.298 468.535,195.632 469.5,249.5C 466.2,334.651 428.2,398.818 355.5,442C 284.833,478.667 214.167,478.667 143.5,442C 130.673,434.836 118.673,426.503 107.5,417C 210.701,313.965 313.701,210.799 416.5,107.5 Z"/></g>
</svg>
